<svg xmlns="http://www.w3.org/2000/svg" xmlns:xlink="http://www.w3.org/1999/xlink" viewBox="0,0,255.98959,255.98959" width="16px" height="16px" fill-rule="nonzero"><g fill="none" fill-rule="nonzero" stroke="none" stroke-width="1" stroke-linecap="butt" stroke-linejoin="miter" stroke-miterlimit="10" stroke-dasharray="" stroke-dashoffset="0" font-family="none" font-weight="none" font-size="none" text-anchor="none" style="mix-blend-mode: normal"><g transform="scale(5.33333,5.33333)"><path d="M38,12h-16l-4,-4h-10c-2.2,0 -4,1.8 -4,4v24c0,2.2 1.8,4 4,4h31c1.7,0 3,-1.3 3,-3v-21c0,-2.2 -1.8,-4 -4,-4z" fill="#a5a19b"></path><path d="M42.2,18h-26.9c-1.9,0 -3.6,1.4 -3.9,3.3l-3.4,18.7h31.7c1.9,0 3.6,-1.4 3.9,-3.3l2.5,-14c0.5,-2.4 -1.4,-4.7 -3.9,-4.7z" fill="#339af0"></path></g></g></svg>