<?xml version="1.0" encoding="UTF-8"?>
<svg width="16px" height="16px" viewBox="0 0 480 482" version="1.1" xmlns="http://www.w3.org/2000/svg" xmlns:xlink="http://www.w3.org/1999/xlink">
    <title>Combined Shape</title>
    <g id="Page-1" stroke="none" stroke-width="1" fill="none" fill-rule="evenodd">
        <path d="M240.097798,161.675781 L165.037906,161.675781 C161.724198,161.675781 159.037906,158.98949 159.037906,155.675781 L159.037906,21.6757812 C159.037906,18.3620728 161.724198,15.6757812 165.037906,15.6757812 L314.037906,15.6757812 C317.351615,15.6757812 320.037906,18.3620728 320.037906,21.6757812 L320.037906,155.675781 C320.037906,158.98949 317.351615,161.675781 314.037906,161.675781 L240.097798,161.675781 Z M98.0977982,466.675781 L23.0379064,466.675781 C19.7241979,466.675781 17.0379064,463.98949 17.0379064,460.675781 L17.0379064,326.675781 C17.0379064,323.362073 19.7241979,320.675781 23.0379064,320.675781 L172.037906,320.675781 C175.351615,320.675781 178.037906,323.362073 178.037906,326.675781 L178.037906,460.675781 C178.037906,463.98949 175.351615,466.675781 172.037906,466.675781 L98.0977982,466.675781 Z M384.097798,466.675781 L309.037906,466.675781 C305.724198,466.675781 303.037906,463.98949 303.037906,460.675781 L303.037906,326.675781 C303.037906,323.362073 305.724198,320.675781 309.037906,320.675781 L458.037906,320.675781 C461.351615,320.675781 464.037906,323.362073 464.037906,326.675781 L464.037906,460.675781 C464.037906,463.98949 461.351615,466.675781 458.037906,466.675781 L384.097798,466.675781 Z M240,176 L240,228 M96,255 L95.7689532,306.272081 M-8.68083383e-13,241 L480,241 M384,255 L383.768953,306.272081" id="Combined-Shape" stroke="#FFEB3B" stroke-width="30"></path>
    </g>
</svg>