<svg class="svg-icon" style="width: 1em; height: 1em;vertical-align: middle;fill: currentColor;overflow: hidden;" viewBox="0 0 1024 1024" version="1.1" xmlns="http://www.w3.org/2000/svg"><path d="M514.56 1000.96L153.6 998.4c-69.12 0-128-56.32-128-128V153.6c0-69.12 56.32-128 128-128h550.4c69.12 0 128 56.32 128 128v266.24c0 23.04-17.92 43.52-43.52 43.52-23.04 0-43.52-17.92-43.52-43.52V153.6c0-23.04-17.92-43.52-43.52-43.52H153.6c-23.04 0-43.52 17.92-43.52 43.52v719.36c0 23.04 17.92 43.52 43.52 43.52h360.96c35.84 0 53.76 15.36 53.76 43.52s-17.92 40.96-53.76 40.96zM212.48 765.44c-2.56 0-7.68 0-10.24-2.56-10.24-5.12-12.8-17.92-7.68-28.16 89.6-161.28 125.44-156.16 138.24-153.6 7.68 2.56 23.04 7.68 28.16 33.28 5.12 20.48 5.12 43.52 7.68 61.44v12.8l15.36-17.92c30.72-35.84 51.2-56.32 74.24-51.2 20.48 5.12 28.16 28.16 28.16 35.84 2.56 12.8 2.56 23.04 2.56 33.28 2.56-2.56 7.68-2.56 10.24-5.12 10.24-5.12 23.04 0 28.16 10.24 5.12 10.24 0 23.04-10.24 28.16-33.28 15.36-51.2 23.04-66.56 10.24-12.8-10.24-10.24-25.6-7.68-35.84 2.56-10.24 5.12-20.48 2.56-30.72-7.68 7.68-20.48 20.48-30.72 33.28l-17.92 17.92c-10.24 10.24-28.16 30.72-48.64 23.04-20.48-7.68-23.04-30.72-23.04-61.44 0-15.36-2.56-30.72-5.12-48.64-20.48 17.92-56.32 69.12-89.6 128-5.12 5.12-10.24 7.68-17.92 7.68z m-17.92-486.4h465.92v43.52H194.56v-43.52z m0 84.48h465.92v43.52H194.56v-43.52z m0 84.48h381.44v43.52H194.56v-43.52z m765.44 266.24h40.96c12.8 0 23.04 12.8 23.04 25.6v46.08c0 12.8-10.24 25.6-23.04 25.6h-40.96c-5.12 7.68-10.24 25.6-15.36 38.4l28.16 28.16c10.24 10.24 10.24 23.04 0 33.28L939.52 947.2c-10.24 10.24-23.04 10.24-33.28 0l-28.16-28.16c-12.8 7.68-30.72 12.8-38.4 15.36v40.96c0 12.8-12.8 23.04-25.6 23.04H768c-12.8 0-25.6-10.24-25.6-23.04v-40.96c-7.68-5.12-25.6-10.24-38.4-15.36L675.84 947.2c-10.24 10.24-23.04 10.24-33.28 0l-33.28-33.28c-10.24-10.24-10.24-23.04 0-33.28l28.16-28.16c-7.68-12.8-12.8-30.72-15.36-38.4h-40.96c-12.8 0-23.04-12.8-23.04-25.6V742.4c0-12.8 10.24-25.6 23.04-25.6h40.96c5.12-7.68 10.24-25.6 15.36-38.4l-28.16-28.16c-10.24-10.24-10.24-23.04 0-33.28l33.28-33.28c10.24-10.24 23.04-10.24 33.28 0l28.16 28.16c12.8-7.68 30.72-12.8 38.4-15.36v-40.96c0-12.8 12.8-23.04 25.6-23.04h46.08c12.8 0 25.6 10.24 25.6 23.04v40.96c7.68 5.12 25.6 10.24 38.4 15.36l28.16-28.16c10.24-10.24 23.04-10.24 33.28 0L972.8 614.4c10.24 10.24 10.24 23.04 0 33.28l-28.16 28.16c5.12 12.8 10.24 28.16 15.36 38.4z m-273.92 48.64c0 58.88 46.08 104.96 104.96 104.96S896 819.2 896 762.88c0-58.88-46.08-104.96-104.96-104.96s-104.96 46.08-104.96 104.96z" fill="#10385C" /></svg>